<?xml version="1.0" encoding="UTF-8" standalone="no"?><svg xmlns="http://www.w3.org/2000/svg" xmlns:xlink="http://www.w3.org/1999/xlink" contentScriptType="application/ecmascript" contentStyleType="text/css" height="995px" preserveAspectRatio="none" style="width:2121px;height:995px;" version="1.1" viewBox="0 0 2121 995" width="2121px" zoomAndPan="magnify"><defs><filter height="300%" id="frbqmlyddh2p7" width="300%" x="-1" y="-1"><feGaussianBlur result="blurOut" stdDeviation="2.0"/><feColorMatrix in="blurOut" result="blurOut2" type="matrix" values="0 0 0 0 0 0 0 0 0 0 0 0 0 0 0 0 0 0 .4 0"/><feOffset dx="4.0" dy="4.0" in="blurOut2" result="blurOut3"/><feBlend in="SourceGraphic" in2="blurOut3" mode="normal"/></filter></defs><g><text fill="#000000" font-family="sans-serif" font-size="18" lengthAdjust="spacingAndGlyphs" text-decoration="underline" textLength="261" x="924" y="16.708">PARKINGLOT's Class Diagram</text><text fill="#000000" font-family="sans-serif" font-size="18" lengthAdjust="spacingAndGlyphs" textLength="0" x="1057.5" y="37.6611"/><!--cluster account--><polygon fill="#FFFFFF" filter="url(#frbqmlyddh2p7)" points="1341,505.9063,1410,505.9063,1417,528.2031,1697,528.2031,1697,911.9063,1341,911.9063,1341,505.9063" style="stroke: #000000; stroke-width: 1.5;"/><line style="stroke: #000000; stroke-width: 1.5;" x1="1341" x2="1417" y1="528.2031" y2="528.2031"/><text fill="#000000" font-family="sans-serif" font-size="14" font-weight="bold" lengthAdjust="spacingAndGlyphs" textLength="63" x="1345" y="520.9014">account</text><!--cluster account.payment--><polygon fill="#FFFFFF" filter="url(#frbqmlyddh2p7)" points="1365,677.9063,1439,677.9063,1446,700.2031,1673,700.2031,1673,887.9063,1365,887.9063,1365,677.9063" style="stroke: #000000; stroke-width: 1.5;"/><line style="stroke: #000000; stroke-width: 1.5;" x1="1365" x2="1446" y1="700.2031" y2="700.2031"/><text fill="#000000" font-family="sans-serif" font-size="14" font-weight="bold" lengthAdjust="spacingAndGlyphs" textLength="68" x="1369" y="692.9014">payment</text><!--cluster database--><polygon fill="#FFFFFF" filter="url(#frbqmlyddh2p7)" points="1947,359.9063,2025,359.9063,2032,382.2031,2075,382.2031,2075,604.9063,1947,604.9063,1947,359.9063" style="stroke: #000000; stroke-width: 1.5;"/><line style="stroke: #000000; stroke-width: 1.5;" x1="1947" x2="2032" y1="382.2031" y2="382.2031"/><text fill="#000000" font-family="sans-serif" font-size="14" font-weight="bold" lengthAdjust="spacingAndGlyphs" textLength="72" x="1951" y="374.9014">database</text><!--cluster factory--><polygon fill="#FFFFFF" filter="url(#frbqmlyddh2p7)" points="1625,65.9063,1687,65.9063,1694,88.2031,1990,88.2031,1990,310.9063,1625,310.9063,1625,65.9063" style="stroke: #000000; stroke-width: 1.5;"/><line style="stroke: #000000; stroke-width: 1.5;" x1="1625" x2="1694" y1="88.2031" y2="88.2031"/><text fill="#000000" font-family="sans-serif" font-size="14" font-weight="bold" lengthAdjust="spacingAndGlyphs" textLength="56" x="1629" y="80.9014">factory</text><!--cluster finance--><polygon fill="#FFFFFF" filter="url(#frbqmlyddh2p7)" points="1721,359.9063,1785,359.9063,1792,382.2031,1923,382.2031,1923,604.9063,1721,604.9063,1721,359.9063" style="stroke: #000000; stroke-width: 1.5;"/><line style="stroke: #000000; stroke-width: 1.5;" x1="1721" x2="1792" y1="382.2031" y2="382.2031"/><text fill="#000000" font-family="sans-serif" font-size="14" font-weight="bold" lengthAdjust="spacingAndGlyphs" textLength="58" x="1725" y="374.9014">finance</text><!--cluster parking--><polygon fill="#FFFFFF" filter="url(#frbqmlyddh2p7)" points="1075,211.9063,1140,211.9063,1147,234.2031,1317,234.2031,1317,628.9063,1075,628.9063,1075,211.9063" style="stroke: #000000; stroke-width: 1.5;"/><line style="stroke: #000000; stroke-width: 1.5;" x1="1075" x2="1147" y1="234.2031" y2="234.2031"/><text fill="#000000" font-family="sans-serif" font-size="14" font-weight="bold" lengthAdjust="spacingAndGlyphs" textLength="59" x="1079" y="226.9014">parking</text><!--cluster parking.map--><polygon fill="#FFFFFF" filter="url(#frbqmlyddh2p7)" points="1099,359.9063,1138,359.9063,1145,382.2031,1293,382.2031,1293,604.9063,1099,604.9063,1099,359.9063" style="stroke: #000000; stroke-width: 1.5;"/><line style="stroke: #000000; stroke-width: 1.5;" x1="1099" x2="1145" y1="382.2031" y2="382.2031"/><text fill="#000000" font-family="sans-serif" font-size="14" font-weight="bold" lengthAdjust="spacingAndGlyphs" textLength="33" x="1103" y="374.9014">map</text><!--cluster spot--><polygon fill="#FFFFFF" filter="url(#frbqmlyddh2p7)" points="472,505.9063,513,505.9063,520,528.2031,1051,528.2031,1051,776.9063,472,776.9063,472,505.9063" style="stroke: #000000; stroke-width: 1.5;"/><line style="stroke: #000000; stroke-width: 1.5;" x1="472" x2="520" y1="528.2031" y2="528.2031"/><text fill="#000000" font-family="sans-serif" font-size="14" font-weight="bold" lengthAdjust="spacingAndGlyphs" textLength="35" x="476" y="520.9014">spot</text><!--cluster vehicle--><polygon fill="#FFFFFF" filter="url(#frbqmlyddh2p7)" points="22,677.9063,84,677.9063,91,700.2031,448,700.2031,448,887.9063,22,887.9063,22,677.9063" style="stroke: #000000; stroke-width: 1.5;"/><line style="stroke: #000000; stroke-width: 1.5;" x1="22" x2="91" y1="700.2031" y2="700.2031"/><text fill="#000000" font-family="sans-serif" font-size="14" font-weight="bold" lengthAdjust="spacingAndGlyphs" textLength="56" x="26" y="692.9014">vehicle</text><!--class account.Account--><rect fill="#FEFECE" filter="url(#frbqmlyddh2p7)" height="48" id="account.Account" style="stroke: #A80036; stroke-width: 1.5;" width="83" x="1586.5" y="540.9063"/><ellipse cx="1601.5" cy="556.9063" fill="#ADD1B2" rx="11" ry="11" style="stroke: #A80036; stroke-width: 1.0;"/><path d="M1603.8438,552.5781 L1604.0156,552.6563 C1604.2344,552.3438 1604.4375,552.25 1604.7344,552.25 C1605.0313,552.25 1605.3125,552.3906 1605.4688,552.6563 C1605.5625,552.8125 1605.5781,552.9375 1605.5781,553.375 L1605.5781,554.7969 C1605.5781,555.2188 1605.5469,555.4063 1605.4375,555.5625 C1605.2656,555.7813 1605,555.9219 1604.7344,555.9219 C1604.5156,555.9219 1604.2813,555.8125 1604.1406,555.6719 C1604,555.5469 1603.9688,555.4219 1603.9063,555.0156 C1603.8125,554.6094 1603.6406,554.3906 1603.1563,554.1094 C1602.6875,553.8594 1602.0781,553.7031 1601.5,553.7031 C1599.7656,553.7031 1598.5156,555.0156 1598.5156,556.7969 L1598.5156,557.8906 C1598.5156,559.5938 1599.8125,560.6875 1601.8594,560.6875 C1602.625,560.6875 1603.3125,560.5625 1603.7344,560.2969 C1603.9219,560.2031 1603.9219,560.2031 1604.375,559.7188 C1604.5625,559.5313 1604.7656,559.4531 1604.9844,559.4531 C1605.4531,559.4531 1605.8438,559.8438 1605.8438,560.2969 C1605.8438,560.6875 1605.5156,561.1406 1604.9375,561.5469 C1604.1875,562.0938 1603.0313,562.3906 1601.8125,562.3906 C1598.9219,562.3906 1596.8125,560.5 1596.8125,557.9219 L1596.8125,556.7969 C1596.8125,554.0781 1598.8125,552 1601.4375,552 C1602.3125,552 1602.9063,552.1406 1603.8438,552.5781 Z "/><text fill="#000000" font-family="sans-serif" font-size="12" lengthAdjust="spacingAndGlyphs" textLength="51" x="1615.5" y="561.0605">Account</text><line style="stroke: #A80036; stroke-width: 1.5;" x1="1587.5" x2="1668.5" y1="572.9063" y2="572.9063"/><line style="stroke: #A80036; stroke-width: 1.5;" x1="1587.5" x2="1668.5" y1="580.9063" y2="580.9063"/><!--class account.payment.CashPayment--><rect fill="#FEFECE" filter="url(#frbqmlyddh2p7)" height="48" id="account.payment.CashPayment" style="stroke: #A80036; stroke-width: 1.5;" width="117" x="1381.5" y="823.9063"/><ellipse cx="1396.5" cy="839.9063" fill="#ADD1B2" rx="11" ry="11" style="stroke: #A80036; stroke-width: 1.0;"/><path d="M1398.8438,835.5781 L1399.0156,835.6563 C1399.2344,835.3438 1399.4375,835.25 1399.7344,835.25 C1400.0313,835.25 1400.3125,835.3906 1400.4688,835.6563 C1400.5625,835.8125 1400.5781,835.9375 1400.5781,836.375 L1400.5781,837.7969 C1400.5781,838.2188 1400.5469,838.4063 1400.4375,838.5625 C1400.2656,838.7813 1400,838.9219 1399.7344,838.9219 C1399.5156,838.9219 1399.2813,838.8125 1399.1406,838.6719 C1399,838.5469 1398.9688,838.4219 1398.9063,838.0156 C1398.8125,837.6094 1398.6406,837.3906 1398.1563,837.1094 C1397.6875,836.8594 1397.0781,836.7031 1396.5,836.7031 C1394.7656,836.7031 1393.5156,838.0156 1393.5156,839.7969 L1393.5156,840.8906 C1393.5156,842.5938 1394.8125,843.6875 1396.8594,843.6875 C1397.625,843.6875 1398.3125,843.5625 1398.7344,843.2969 C1398.9219,843.2031 1398.9219,843.2031 1399.375,842.7188 C1399.5625,842.5313 1399.7656,842.4531 1399.9844,842.4531 C1400.4531,842.4531 1400.8438,842.8438 1400.8438,843.2969 C1400.8438,843.6875 1400.5156,844.1406 1399.9375,844.5469 C1399.1875,845.0938 1398.0313,845.3906 1396.8125,845.3906 C1393.9219,845.3906 1391.8125,843.5 1391.8125,840.9219 L1391.8125,839.7969 C1391.8125,837.0781 1393.8125,835 1396.4375,835 C1397.3125,835 1397.9063,835.1406 1398.8438,835.5781 Z "/><text fill="#000000" font-family="sans-serif" font-size="12" lengthAdjust="spacingAndGlyphs" textLength="85" x="1410.5" y="844.0605">CashPayment</text><line style="stroke: #A80036; stroke-width: 1.5;" x1="1382.5" x2="1497.5" y1="855.9063" y2="855.9063"/><line style="stroke: #A80036; stroke-width: 1.5;" x1="1382.5" x2="1497.5" y1="863.9063" y2="863.9063"/><!--class account.payment.CreditPayment--><rect fill="#FEFECE" filter="url(#frbqmlyddh2p7)" height="48" id="account.payment.CreditPayment" style="stroke: #A80036; stroke-width: 1.5;" width="123" x="1533.5" y="823.9063"/><ellipse cx="1548.5" cy="839.9063" fill="#ADD1B2" rx="11" ry="11" style="stroke: #A80036; stroke-width: 1.0;"/><path d="M1550.8438,835.5781 L1551.0156,835.6563 C1551.2344,835.3438 1551.4375,835.25 1551.7344,835.25 C1552.0313,835.25 1552.3125,835.3906 1552.4688,835.6563 C1552.5625,835.8125 1552.5781,835.9375 1552.5781,836.375 L1552.5781,837.7969 C1552.5781,838.2188 1552.5469,838.4063 1552.4375,838.5625 C1552.2656,838.7813 1552,838.9219 1551.7344,838.9219 C1551.5156,838.9219 1551.2813,838.8125 1551.1406,838.6719 C1551,838.5469 1550.9688,838.4219 1550.9063,838.0156 C1550.8125,837.6094 1550.6406,837.3906 1550.1563,837.1094 C1549.6875,836.8594 1549.0781,836.7031 1548.5,836.7031 C1546.7656,836.7031 1545.5156,838.0156 1545.5156,839.7969 L1545.5156,840.8906 C1545.5156,842.5938 1546.8125,843.6875 1548.8594,843.6875 C1549.625,843.6875 1550.3125,843.5625 1550.7344,843.2969 C1550.9219,843.2031 1550.9219,843.2031 1551.375,842.7188 C1551.5625,842.5313 1551.7656,842.4531 1551.9844,842.4531 C1552.4531,842.4531 1552.8438,842.8438 1552.8438,843.2969 C1552.8438,843.6875 1552.5156,844.1406 1551.9375,844.5469 C1551.1875,845.0938 1550.0313,845.3906 1548.8125,845.3906 C1545.9219,845.3906 1543.8125,843.5 1543.8125,840.9219 L1543.8125,839.7969 C1543.8125,837.0781 1545.8125,835 1548.4375,835 C1549.3125,835 1549.9063,835.1406 1550.8438,835.5781 Z "/><text fill="#000000" font-family="sans-serif" font-size="12" lengthAdjust="spacingAndGlyphs" textLength="91" x="1562.5" y="844.0605">CreditPayment</text><line style="stroke: #A80036; stroke-width: 1.5;" x1="1534.5" x2="1655.5" y1="855.9063" y2="855.9063"/><line style="stroke: #A80036; stroke-width: 1.5;" x1="1534.5" x2="1655.5" y1="863.9063" y2="863.9063"/><!--class account.payment.Payment--><rect fill="#FEFECE" filter="url(#frbqmlyddh2p7)" height="48" id="account.payment.Payment" style="stroke: #A80036; stroke-width: 1.5;" width="86" x="1552" y="712.9063"/><ellipse cx="1567" cy="728.9063" fill="#A9DCDF" rx="11" ry="11" style="stroke: #A80036; stroke-width: 1.0;"/><path d="M1568.5781,730.7188 L1564.5313,730.7188 L1564.1406,731.7031 L1564.5313,731.7031 C1564.9844,731.7031 1565.125,731.7344 1565.2969,731.8594 C1565.5156,732.0313 1565.6406,732.2813 1565.6406,732.5625 C1565.6406,732.8438 1565.5,733.1406 1565.2344,733.2813 C1565.1094,733.375 1564.8906,733.4063 1564.5313,733.4063 L1562.2656,733.4063 C1561.5156,733.4063 1561.1406,733.125 1561.1406,732.5625 C1561.1406,732.2656 1561.2969,731.9844 1561.5469,731.8281 C1561.7031,731.7188 1561.8594,731.7031 1562.2813,731.7031 L1564.9219,725.1875 L1563.8438,725.1875 C1563.4063,725.1875 1563.2344,725.1563 1563.0625,725.0469 C1562.8438,724.875 1562.7031,724.625 1562.7031,724.3438 C1562.7031,724.0625 1562.8594,723.7813 1563.1094,723.6094 C1563.2656,723.5156 1563.3906,723.5 1563.8438,723.5 L1567.5156,723.5 L1570.9063,731.7031 C1571.375,731.7031 1571.5313,731.7344 1571.7031,731.875 C1571.9219,732.0313 1572.0625,732.2813 1572.0625,732.5625 C1572.0625,732.8438 1571.9063,733.1406 1571.6563,733.2813 C1571.5156,733.375 1571.2969,733.4063 1570.9375,733.4063 L1568.5781,733.4063 C1568.1563,733.4063 1567.9531,733.3594 1567.8125,733.2344 C1567.5938,733.0781 1567.4531,732.8281 1567.4531,732.5625 C1567.4531,732.2656 1567.6094,731.9844 1567.8594,731.8281 C1568.0156,731.7188 1568.125,731.7031 1568.5781,731.7031 L1568.9688,731.7031 Z M1567.875,729.0156 L1566.5469,725.75 L1565.2031,729.0156 Z "/><text fill="#000000" font-family="sans-serif" font-size="12" font-style="italic" lengthAdjust="spacingAndGlyphs" textLength="54" x="1581" y="733.0605">Payment</text><line style="stroke: #A80036; stroke-width: 1.5;" x1="1553" x2="1637" y1="744.9063" y2="744.9063"/><line style="stroke: #A80036; stroke-width: 1.5;" x1="1553" x2="1637" y1="752.9063" y2="752.9063"/><!--class database.DBFacade--><rect fill="#FEFECE" filter="url(#frbqmlyddh2p7)" height="48" id="database.DBFacade" style="stroke: #A80036; stroke-width: 1.5;" width="95" x="1963.5" y="394.9063"/><ellipse cx="1978.5" cy="410.9063" fill="#A9DCDF" rx="11" ry="11" style="stroke: #A80036; stroke-width: 1.0;"/><path d="M1980.0781,412.7188 L1976.0313,412.7188 L1975.6406,413.7031 L1976.0313,413.7031 C1976.4844,413.7031 1976.625,413.7344 1976.7969,413.8594 C1977.0156,414.0313 1977.1406,414.2813 1977.1406,414.5625 C1977.1406,414.8438 1977,415.1406 1976.7344,415.2813 C1976.6094,415.375 1976.3906,415.4063 1976.0313,415.4063 L1973.7656,415.4063 C1973.0156,415.4063 1972.6406,415.125 1972.6406,414.5625 C1972.6406,414.2656 1972.7969,413.9844 1973.0469,413.8281 C1973.2031,413.7188 1973.3594,413.7031 1973.7813,413.7031 L1976.4219,407.1875 L1975.3438,407.1875 C1974.9063,407.1875 1974.7344,407.1563 1974.5625,407.0469 C1974.3438,406.875 1974.2031,406.625 1974.2031,406.3438 C1974.2031,406.0625 1974.3594,405.7813 1974.6094,405.6094 C1974.7656,405.5156 1974.8906,405.5 1975.3438,405.5 L1979.0156,405.5 L1982.4063,413.7031 C1982.875,413.7031 1983.0313,413.7344 1983.2031,413.875 C1983.4219,414.0313 1983.5625,414.2813 1983.5625,414.5625 C1983.5625,414.8438 1983.4063,415.1406 1983.1563,415.2813 C1983.0156,415.375 1982.7969,415.4063 1982.4375,415.4063 L1980.0781,415.4063 C1979.6563,415.4063 1979.4531,415.3594 1979.3125,415.2344 C1979.0938,415.0781 1978.9531,414.8281 1978.9531,414.5625 C1978.9531,414.2656 1979.1094,413.9844 1979.3594,413.8281 C1979.5156,413.7188 1979.625,413.7031 1980.0781,413.7031 L1980.4688,413.7031 Z M1979.375,411.0156 L1978.0469,407.75 L1976.7031,411.0156 Z "/><text fill="#000000" font-family="sans-serif" font-size="12" font-style="italic" lengthAdjust="spacingAndGlyphs" textLength="63" x="1992.5" y="415.0605">DBFacade</text><line style="stroke: #A80036; stroke-width: 1.5;" x1="1964.5" x2="2057.5" y1="426.9063" y2="426.9063"/><line style="stroke: #A80036; stroke-width: 1.5;" x1="1964.5" x2="2057.5" y1="434.9063" y2="434.9063"/><!--class database.Database--><rect fill="#FEFECE" filter="url(#frbqmlyddh2p7)" height="48" id="database.Database" style="stroke: #A80036; stroke-width: 1.5;" width="93" x="1964.5" y="540.9063"/><ellipse cx="1979.5" cy="556.9063" fill="#ADD1B2" rx="11" ry="11" style="stroke: #A80036; stroke-width: 1.0;"/><path d="M1981.8438,552.5781 L1982.0156,552.6563 C1982.2344,552.3438 1982.4375,552.25 1982.7344,552.25 C1983.0313,552.25 1983.3125,552.3906 1983.4688,552.6563 C1983.5625,552.8125 1983.5781,552.9375 1983.5781,553.375 L1983.5781,554.7969 C1983.5781,555.2188 1983.5469,555.4063 1983.4375,555.5625 C1983.2656,555.7813 1983,555.9219 1982.7344,555.9219 C1982.5156,555.9219 1982.2813,555.8125 1982.1406,555.6719 C1982,555.5469 1981.9688,555.4219 1981.9063,555.0156 C1981.8125,554.6094 1981.6406,554.3906 1981.1563,554.1094 C1980.6875,553.8594 1980.0781,553.7031 1979.5,553.7031 C1977.7656,553.7031 1976.5156,555.0156 1976.5156,556.7969 L1976.5156,557.8906 C1976.5156,559.5938 1977.8125,560.6875 1979.8594,560.6875 C1980.625,560.6875 1981.3125,560.5625 1981.7344,560.2969 C1981.9219,560.2031 1981.9219,560.2031 1982.375,559.7188 C1982.5625,559.5313 1982.7656,559.4531 1982.9844,559.4531 C1983.4531,559.4531 1983.8438,559.8438 1983.8438,560.2969 C1983.8438,560.6875 1983.5156,561.1406 1982.9375,561.5469 C1982.1875,562.0938 1981.0313,562.3906 1979.8125,562.3906 C1976.9219,562.3906 1974.8125,560.5 1974.8125,557.9219 L1974.8125,556.7969 C1974.8125,554.0781 1976.8125,552 1979.4375,552 C1980.3125,552 1980.9063,552.1406 1981.8438,552.5781 Z "/><text fill="#000000" font-family="sans-serif" font-size="12" lengthAdjust="spacingAndGlyphs" textLength="61" x="1993.5" y="561.0605">Database</text><line style="stroke: #A80036; stroke-width: 1.5;" x1="1965.5" x2="2056.5" y1="572.9063" y2="572.9063"/><line style="stroke: #A80036; stroke-width: 1.5;" x1="1965.5" x2="2056.5" y1="580.9063" y2="580.9063"/><!--class factory.ChargerFactory--><rect fill="#FEFECE" filter="url(#frbqmlyddh2p7)" height="48" id="factory.ChargerFactory" style="stroke: #A80036; stroke-width: 1.5;" width="128" x="1846" y="246.9063"/><ellipse cx="1861" cy="262.9063" fill="#ADD1B2" rx="11" ry="11" style="stroke: #A80036; stroke-width: 1.0;"/><path d="M1863.3438,258.5781 L1863.5156,258.6563 C1863.7344,258.3438 1863.9375,258.25 1864.2344,258.25 C1864.5313,258.25 1864.8125,258.3906 1864.9688,258.6563 C1865.0625,258.8125 1865.0781,258.9375 1865.0781,259.375 L1865.0781,260.7969 C1865.0781,261.2188 1865.0469,261.4063 1864.9375,261.5625 C1864.7656,261.7813 1864.5,261.9219 1864.2344,261.9219 C1864.0156,261.9219 1863.7813,261.8125 1863.6406,261.6719 C1863.5,261.5469 1863.4688,261.4219 1863.4063,261.0156 C1863.3125,260.6094 1863.1406,260.3906 1862.6563,260.1094 C1862.1875,259.8594 1861.5781,259.7031 1861,259.7031 C1859.2656,259.7031 1858.0156,261.0156 1858.0156,262.7969 L1858.0156,263.8906 C1858.0156,265.5938 1859.3125,266.6875 1861.3594,266.6875 C1862.125,266.6875 1862.8125,266.5625 1863.2344,266.2969 C1863.4219,266.2031 1863.4219,266.2031 1863.875,265.7188 C1864.0625,265.5313 1864.2656,265.4531 1864.4844,265.4531 C1864.9531,265.4531 1865.3438,265.8438 1865.3438,266.2969 C1865.3438,266.6875 1865.0156,267.1406 1864.4375,267.5469 C1863.6875,268.0938 1862.5313,268.3906 1861.3125,268.3906 C1858.4219,268.3906 1856.3125,266.5 1856.3125,263.9219 L1856.3125,262.7969 C1856.3125,260.0781 1858.3125,258 1860.9375,258 C1861.8125,258 1862.4063,258.1406 1863.3438,258.5781 Z "/><text fill="#000000" font-family="sans-serif" font-size="12" lengthAdjust="spacingAndGlyphs" textLength="96" x="1875" y="267.0605">ChargerFactory</text><line style="stroke: #A80036; stroke-width: 1.5;" x1="1847" x2="1973" y1="278.9063" y2="278.9063"/><line style="stroke: #A80036; stroke-width: 1.5;" x1="1847" x2="1973" y1="286.9063" y2="286.9063"/><!--class factory.ParkingLotFactory--><rect fill="#FEFECE" filter="url(#frbqmlyddh2p7)" height="48" id="factory.ParkingLotFactory" style="stroke: #A80036; stroke-width: 1.5;" width="144" x="1721" y="100.9063"/><ellipse cx="1736" cy="116.9063" fill="#ADD1B2" rx="11" ry="11" style="stroke: #A80036; stroke-width: 1.0;"/><path d="M1738.3438,112.5781 L1738.5156,112.6563 C1738.7344,112.3438 1738.9375,112.25 1739.2344,112.25 C1739.5313,112.25 1739.8125,112.3906 1739.9688,112.6563 C1740.0625,112.8125 1740.0781,112.9375 1740.0781,113.375 L1740.0781,114.7969 C1740.0781,115.2188 1740.0469,115.4063 1739.9375,115.5625 C1739.7656,115.7813 1739.5,115.9219 1739.2344,115.9219 C1739.0156,115.9219 1738.7813,115.8125 1738.6406,115.6719 C1738.5,115.5469 1738.4688,115.4219 1738.4063,115.0156 C1738.3125,114.6094 1738.1406,114.3906 1737.6563,114.1094 C1737.1875,113.8594 1736.5781,113.7031 1736,113.7031 C1734.2656,113.7031 1733.0156,115.0156 1733.0156,116.7969 L1733.0156,117.8906 C1733.0156,119.5938 1734.3125,120.6875 1736.3594,120.6875 C1737.125,120.6875 1737.8125,120.5625 1738.2344,120.2969 C1738.4219,120.2031 1738.4219,120.2031 1738.875,119.7188 C1739.0625,119.5313 1739.2656,119.4531 1739.4844,119.4531 C1739.9531,119.4531 1740.3438,119.8438 1740.3438,120.2969 C1740.3438,120.6875 1740.0156,121.1406 1739.4375,121.5469 C1738.6875,122.0938 1737.5313,122.3906 1736.3125,122.3906 C1733.4219,122.3906 1731.3125,120.5 1731.3125,117.9219 L1731.3125,116.7969 C1731.3125,114.0781 1733.3125,112 1735.9375,112 C1736.8125,112 1737.4063,112.1406 1738.3438,112.5781 Z "/><text fill="#000000" font-family="sans-serif" font-size="12" lengthAdjust="spacingAndGlyphs" textLength="112" x="1750" y="121.0605">ParkingLotFactory</text><line style="stroke: #A80036; stroke-width: 1.5;" x1="1722" x2="1864" y1="132.9063" y2="132.9063"/><line style="stroke: #A80036; stroke-width: 1.5;" x1="1722" x2="1864" y1="140.9063" y2="140.9063"/><!--class factory.ParkingLotMapFactory--><rect fill="#FEFECE" filter="url(#frbqmlyddh2p7)" height="48" id="factory.ParkingLotMapFactory" style="stroke: #A80036; stroke-width: 1.5;" width="170" x="1641" y="246.9063"/><ellipse cx="1656" cy="262.9063" fill="#ADD1B2" rx="11" ry="11" style="stroke: #A80036; stroke-width: 1.0;"/><path d="M1658.3438,258.5781 L1658.5156,258.6563 C1658.7344,258.3438 1658.9375,258.25 1659.2344,258.25 C1659.5313,258.25 1659.8125,258.3906 1659.9688,258.6563 C1660.0625,258.8125 1660.0781,258.9375 1660.0781,259.375 L1660.0781,260.7969 C1660.0781,261.2188 1660.0469,261.4063 1659.9375,261.5625 C1659.7656,261.7813 1659.5,261.9219 1659.2344,261.9219 C1659.0156,261.9219 1658.7813,261.8125 1658.6406,261.6719 C1658.5,261.5469 1658.4688,261.4219 1658.4063,261.0156 C1658.3125,260.6094 1658.1406,260.3906 1657.6563,260.1094 C1657.1875,259.8594 1656.5781,259.7031 1656,259.7031 C1654.2656,259.7031 1653.0156,261.0156 1653.0156,262.7969 L1653.0156,263.8906 C1653.0156,265.5938 1654.3125,266.6875 1656.3594,266.6875 C1657.125,266.6875 1657.8125,266.5625 1658.2344,266.2969 C1658.4219,266.2031 1658.4219,266.2031 1658.875,265.7188 C1659.0625,265.5313 1659.2656,265.4531 1659.4844,265.4531 C1659.9531,265.4531 1660.3438,265.8438 1660.3438,266.2969 C1660.3438,266.6875 1660.0156,267.1406 1659.4375,267.5469 C1658.6875,268.0938 1657.5313,268.3906 1656.3125,268.3906 C1653.4219,268.3906 1651.3125,266.5 1651.3125,263.9219 L1651.3125,262.7969 C1651.3125,260.0781 1653.3125,258 1655.9375,258 C1656.8125,258 1657.4063,258.1406 1658.3438,258.5781 Z "/><text fill="#000000" font-family="sans-serif" font-size="12" lengthAdjust="spacingAndGlyphs" textLength="138" x="1670" y="267.0605">ParkingLotMapFactory</text><line style="stroke: #A80036; stroke-width: 1.5;" x1="1642" x2="1810" y1="278.9063" y2="278.9063"/><line style="stroke: #A80036; stroke-width: 1.5;" x1="1642" x2="1810" y1="286.9063" y2="286.9063"/><!--class finance.MoneyCharger--><rect fill="#FEFECE" filter="url(#frbqmlyddh2p7)" height="48" id="finance.MoneyCharger" style="stroke: #A80036; stroke-width: 1.5;" width="123" x="1748.5" y="394.9063"/><ellipse cx="1763.5" cy="410.9063" fill="#A9DCDF" rx="11" ry="11" style="stroke: #A80036; stroke-width: 1.0;"/><path d="M1765.0781,412.7188 L1761.0313,412.7188 L1760.6406,413.7031 L1761.0313,413.7031 C1761.4844,413.7031 1761.625,413.7344 1761.7969,413.8594 C1762.0156,414.0313 1762.1406,414.2813 1762.1406,414.5625 C1762.1406,414.8438 1762,415.1406 1761.7344,415.2813 C1761.6094,415.375 1761.3906,415.4063 1761.0313,415.4063 L1758.7656,415.4063 C1758.0156,415.4063 1757.6406,415.125 1757.6406,414.5625 C1757.6406,414.2656 1757.7969,413.9844 1758.0469,413.8281 C1758.2031,413.7188 1758.3594,413.7031 1758.7813,413.7031 L1761.4219,407.1875 L1760.3438,407.1875 C1759.9063,407.1875 1759.7344,407.1563 1759.5625,407.0469 C1759.3438,406.875 1759.2031,406.625 1759.2031,406.3438 C1759.2031,406.0625 1759.3594,405.7813 1759.6094,405.6094 C1759.7656,405.5156 1759.8906,405.5 1760.3438,405.5 L1764.0156,405.5 L1767.4063,413.7031 C1767.875,413.7031 1768.0313,413.7344 1768.2031,413.875 C1768.4219,414.0313 1768.5625,414.2813 1768.5625,414.5625 C1768.5625,414.8438 1768.4063,415.1406 1768.1563,415.2813 C1768.0156,415.375 1767.7969,415.4063 1767.4375,415.4063 L1765.0781,415.4063 C1764.6563,415.4063 1764.4531,415.3594 1764.3125,415.2344 C1764.0938,415.0781 1763.9531,414.8281 1763.9531,414.5625 C1763.9531,414.2656 1764.1094,413.9844 1764.3594,413.8281 C1764.5156,413.7188 1764.625,413.7031 1765.0781,413.7031 L1765.4688,413.7031 Z M1764.375,411.0156 L1763.0469,407.75 L1761.7031,411.0156 Z "/><text fill="#000000" font-family="sans-serif" font-size="12" font-style="italic" lengthAdjust="spacingAndGlyphs" textLength="91" x="1777.5" y="415.0605">MoneyCharger</text><line style="stroke: #A80036; stroke-width: 1.5;" x1="1749.5" x2="1870.5" y1="426.9063" y2="426.9063"/><line style="stroke: #A80036; stroke-width: 1.5;" x1="1749.5" x2="1870.5" y1="434.9063" y2="434.9063"/><!--class finance.ParkingMoneyCharger--><rect fill="#FEFECE" filter="url(#frbqmlyddh2p7)" height="48" id="finance.ParkingMoneyCharger" style="stroke: #A80036; stroke-width: 1.5;" width="169" x="1737.5" y="540.9063"/><ellipse cx="1752.5" cy="556.9063" fill="#ADD1B2" rx="11" ry="11" style="stroke: #A80036; stroke-width: 1.0;"/><path d="M1754.8438,552.5781 L1755.0156,552.6563 C1755.2344,552.3438 1755.4375,552.25 1755.7344,552.25 C1756.0313,552.25 1756.3125,552.3906 1756.4688,552.6563 C1756.5625,552.8125 1756.5781,552.9375 1756.5781,553.375 L1756.5781,554.7969 C1756.5781,555.2188 1756.5469,555.4063 1756.4375,555.5625 C1756.2656,555.7813 1756,555.9219 1755.7344,555.9219 C1755.5156,555.9219 1755.2813,555.8125 1755.1406,555.6719 C1755,555.5469 1754.9688,555.4219 1754.9063,555.0156 C1754.8125,554.6094 1754.6406,554.3906 1754.1563,554.1094 C1753.6875,553.8594 1753.0781,553.7031 1752.5,553.7031 C1750.7656,553.7031 1749.5156,555.0156 1749.5156,556.7969 L1749.5156,557.8906 C1749.5156,559.5938 1750.8125,560.6875 1752.8594,560.6875 C1753.625,560.6875 1754.3125,560.5625 1754.7344,560.2969 C1754.9219,560.2031 1754.9219,560.2031 1755.375,559.7188 C1755.5625,559.5313 1755.7656,559.4531 1755.9844,559.4531 C1756.4531,559.4531 1756.8438,559.8438 1756.8438,560.2969 C1756.8438,560.6875 1756.5156,561.1406 1755.9375,561.5469 C1755.1875,562.0938 1754.0313,562.3906 1752.8125,562.3906 C1749.9219,562.3906 1747.8125,560.5 1747.8125,557.9219 L1747.8125,556.7969 C1747.8125,554.0781 1749.8125,552 1752.4375,552 C1753.3125,552 1753.9063,552.1406 1754.8438,552.5781 Z "/><text fill="#000000" font-family="sans-serif" font-size="12" lengthAdjust="spacingAndGlyphs" textLength="137" x="1766.5" y="561.0605">ParkingMoneyCharger</text><line style="stroke: #A80036; stroke-width: 1.5;" x1="1738.5" x2="1905.5" y1="572.9063" y2="572.9063"/><line style="stroke: #A80036; stroke-width: 1.5;" x1="1738.5" x2="1905.5" y1="580.9063" y2="580.9063"/><!--class parking.ParkingLot--><rect fill="#FEFECE" filter="url(#frbqmlyddh2p7)" height="48" id="parking.ParkingLot" style="stroke: #A80036; stroke-width: 1.5;" width="98" x="1177" y="246.9063"/><ellipse cx="1192" cy="262.9063" fill="#ADD1B2" rx="11" ry="11" style="stroke: #A80036; stroke-width: 1.0;"/><path d="M1194.3438,258.5781 L1194.5156,258.6563 C1194.7344,258.3438 1194.9375,258.25 1195.2344,258.25 C1195.5313,258.25 1195.8125,258.3906 1195.9688,258.6563 C1196.0625,258.8125 1196.0781,258.9375 1196.0781,259.375 L1196.0781,260.7969 C1196.0781,261.2188 1196.0469,261.4063 1195.9375,261.5625 C1195.7656,261.7813 1195.5,261.9219 1195.2344,261.9219 C1195.0156,261.9219 1194.7813,261.8125 1194.6406,261.6719 C1194.5,261.5469 1194.4688,261.4219 1194.4063,261.0156 C1194.3125,260.6094 1194.1406,260.3906 1193.6563,260.1094 C1193.1875,259.8594 1192.5781,259.7031 1192,259.7031 C1190.2656,259.7031 1189.0156,261.0156 1189.0156,262.7969 L1189.0156,263.8906 C1189.0156,265.5938 1190.3125,266.6875 1192.3594,266.6875 C1193.125,266.6875 1193.8125,266.5625 1194.2344,266.2969 C1194.4219,266.2031 1194.4219,266.2031 1194.875,265.7188 C1195.0625,265.5313 1195.2656,265.4531 1195.4844,265.4531 C1195.9531,265.4531 1196.3438,265.8438 1196.3438,266.2969 C1196.3438,266.6875 1196.0156,267.1406 1195.4375,267.5469 C1194.6875,268.0938 1193.5313,268.3906 1192.3125,268.3906 C1189.4219,268.3906 1187.3125,266.5 1187.3125,263.9219 L1187.3125,262.7969 C1187.3125,260.0781 1189.3125,258 1191.9375,258 C1192.8125,258 1193.4063,258.1406 1194.3438,258.5781 Z "/><text fill="#000000" font-family="sans-serif" font-size="12" lengthAdjust="spacingAndGlyphs" textLength="66" x="1206" y="267.0605">ParkingLot</text><line style="stroke: #A80036; stroke-width: 1.5;" x1="1178" x2="1274" y1="278.9063" y2="278.9063"/><line style="stroke: #A80036; stroke-width: 1.5;" x1="1178" x2="1274" y1="286.9063" y2="286.9063"/><!--class parking.map.LinearParkingLotMap--><rect fill="#FEFECE" filter="url(#frbqmlyddh2p7)" height="48" id="parking.map.LinearParkingLotMap" style="stroke: #A80036; stroke-width: 1.5;" width="162" x="1115" y="540.9063"/><ellipse cx="1130" cy="556.9063" fill="#ADD1B2" rx="11" ry="11" style="stroke: #A80036; stroke-width: 1.0;"/><path d="M1132.3438,552.5781 L1132.5156,552.6563 C1132.7344,552.3438 1132.9375,552.25 1133.2344,552.25 C1133.5313,552.25 1133.8125,552.3906 1133.9688,552.6563 C1134.0625,552.8125 1134.0781,552.9375 1134.0781,553.375 L1134.0781,554.7969 C1134.0781,555.2188 1134.0469,555.4063 1133.9375,555.5625 C1133.7656,555.7813 1133.5,555.9219 1133.2344,555.9219 C1133.0156,555.9219 1132.7813,555.8125 1132.6406,555.6719 C1132.5,555.5469 1132.4688,555.4219 1132.4063,555.0156 C1132.3125,554.6094 1132.1406,554.3906 1131.6563,554.1094 C1131.1875,553.8594 1130.5781,553.7031 1130,553.7031 C1128.2656,553.7031 1127.0156,555.0156 1127.0156,556.7969 L1127.0156,557.8906 C1127.0156,559.5938 1128.3125,560.6875 1130.3594,560.6875 C1131.125,560.6875 1131.8125,560.5625 1132.2344,560.2969 C1132.4219,560.2031 1132.4219,560.2031 1132.875,559.7188 C1133.0625,559.5313 1133.2656,559.4531 1133.4844,559.4531 C1133.9531,559.4531 1134.3438,559.8438 1134.3438,560.2969 C1134.3438,560.6875 1134.0156,561.1406 1133.4375,561.5469 C1132.6875,562.0938 1131.5313,562.3906 1130.3125,562.3906 C1127.4219,562.3906 1125.3125,560.5 1125.3125,557.9219 L1125.3125,556.7969 C1125.3125,554.0781 1127.3125,552 1129.9375,552 C1130.8125,552 1131.4063,552.1406 1132.3438,552.5781 Z "/><text fill="#000000" font-family="sans-serif" font-size="12" lengthAdjust="spacingAndGlyphs" textLength="130" x="1144" y="561.0605">LinearParkingLotMap</text><line style="stroke: #A80036; stroke-width: 1.5;" x1="1116" x2="1276" y1="572.9063" y2="572.9063"/><line style="stroke: #A80036; stroke-width: 1.5;" x1="1116" x2="1276" y1="580.9063" y2="580.9063"/><!--class parking.map.ParkingLotMap--><rect fill="#FEFECE" filter="url(#frbqmlyddh2p7)" height="48" id="parking.map.ParkingLotMap" style="stroke: #A80036; stroke-width: 1.5;" width="124" x="1138" y="394.9063"/><ellipse cx="1153" cy="410.9063" fill="#A9DCDF" rx="11" ry="11" style="stroke: #A80036; stroke-width: 1.0;"/><path d="M1154.5781,412.7188 L1150.5313,412.7188 L1150.1406,413.7031 L1150.5313,413.7031 C1150.9844,413.7031 1151.125,413.7344 1151.2969,413.8594 C1151.5156,414.0313 1151.6406,414.2813 1151.6406,414.5625 C1151.6406,414.8438 1151.5,415.1406 1151.2344,415.2813 C1151.1094,415.375 1150.8906,415.4063 1150.5313,415.4063 L1148.2656,415.4063 C1147.5156,415.4063 1147.1406,415.125 1147.1406,414.5625 C1147.1406,414.2656 1147.2969,413.9844 1147.5469,413.8281 C1147.7031,413.7188 1147.8594,413.7031 1148.2813,413.7031 L1150.9219,407.1875 L1149.8438,407.1875 C1149.4063,407.1875 1149.2344,407.1563 1149.0625,407.0469 C1148.8438,406.875 1148.7031,406.625 1148.7031,406.3438 C1148.7031,406.0625 1148.8594,405.7813 1149.1094,405.6094 C1149.2656,405.5156 1149.3906,405.5 1149.8438,405.5 L1153.5156,405.5 L1156.9063,413.7031 C1157.375,413.7031 1157.5313,413.7344 1157.7031,413.875 C1157.9219,414.0313 1158.0625,414.2813 1158.0625,414.5625 C1158.0625,414.8438 1157.9063,415.1406 1157.6563,415.2813 C1157.5156,415.375 1157.2969,415.4063 1156.9375,415.4063 L1154.5781,415.4063 C1154.1563,415.4063 1153.9531,415.3594 1153.8125,415.2344 C1153.5938,415.0781 1153.4531,414.8281 1153.4531,414.5625 C1153.4531,414.2656 1153.6094,413.9844 1153.8594,413.8281 C1154.0156,413.7188 1154.125,413.7031 1154.5781,413.7031 L1154.9688,413.7031 Z M1153.875,411.0156 L1152.5469,407.75 L1151.2031,411.0156 Z "/><text fill="#000000" font-family="sans-serif" font-size="12" font-style="italic" lengthAdjust="spacingAndGlyphs" textLength="92" x="1167" y="415.0605">ParkingLotMap</text><line style="stroke: #A80036; stroke-width: 1.5;" x1="1139" x2="1261" y1="426.9063" y2="426.9063"/><line style="stroke: #A80036; stroke-width: 1.5;" x1="1139" x2="1261" y1="434.9063" y2="434.9063"/><!--class spot.CompactSpot--><rect fill="#FEFECE" filter="url(#frbqmlyddh2p7)" height="48" id="spot.CompactSpot" style="stroke: #A80036; stroke-width: 1.5;" width="116" x="488" y="712.9063"/><ellipse cx="503" cy="728.9063" fill="#ADD1B2" rx="11" ry="11" style="stroke: #A80036; stroke-width: 1.0;"/><path d="M505.3438,724.5781 L505.5156,724.6563 C505.7344,724.3438 505.9375,724.25 506.2344,724.25 C506.5313,724.25 506.8125,724.3906 506.9688,724.6563 C507.0625,724.8125 507.0781,724.9375 507.0781,725.375 L507.0781,726.7969 C507.0781,727.2188 507.0469,727.4063 506.9375,727.5625 C506.7656,727.7813 506.5,727.9219 506.2344,727.9219 C506.0156,727.9219 505.7813,727.8125 505.6406,727.6719 C505.5,727.5469 505.4688,727.4219 505.4063,727.0156 C505.3125,726.6094 505.1406,726.3906 504.6563,726.1094 C504.1875,725.8594 503.5781,725.7031 503,725.7031 C501.2656,725.7031 500.0156,727.0156 500.0156,728.7969 L500.0156,729.8906 C500.0156,731.5938 501.3125,732.6875 503.3594,732.6875 C504.125,732.6875 504.8125,732.5625 505.2344,732.2969 C505.4219,732.2031 505.4219,732.2031 505.875,731.7188 C506.0625,731.5313 506.2656,731.4531 506.4844,731.4531 C506.9531,731.4531 507.3438,731.8438 507.3438,732.2969 C507.3438,732.6875 507.0156,733.1406 506.4375,733.5469 C505.6875,734.0938 504.5313,734.3906 503.3125,734.3906 C500.4219,734.3906 498.3125,732.5 498.3125,729.9219 L498.3125,728.7969 C498.3125,726.0781 500.3125,724 502.9375,724 C503.8125,724 504.4063,724.1406 505.3438,724.5781 Z "/><text fill="#000000" font-family="sans-serif" font-size="12" lengthAdjust="spacingAndGlyphs" textLength="84" x="517" y="733.0605">CompactSpot</text><line style="stroke: #A80036; stroke-width: 1.5;" x1="489" x2="603" y1="744.9063" y2="744.9063"/><line style="stroke: #A80036; stroke-width: 1.5;" x1="489" x2="603" y1="752.9063" y2="752.9063"/><!--class spot.DummySpot--><rect fill="#FEFECE" filter="url(#frbqmlyddh2p7)" height="48" id="spot.DummySpot" style="stroke: #A80036; stroke-width: 1.5;" width="106" x="639" y="712.9063"/><ellipse cx="654" cy="728.9063" fill="#ADD1B2" rx="11" ry="11" style="stroke: #A80036; stroke-width: 1.0;"/><path d="M656.3438,724.5781 L656.5156,724.6563 C656.7344,724.3438 656.9375,724.25 657.2344,724.25 C657.5313,724.25 657.8125,724.3906 657.9688,724.6563 C658.0625,724.8125 658.0781,724.9375 658.0781,725.375 L658.0781,726.7969 C658.0781,727.2188 658.0469,727.4063 657.9375,727.5625 C657.7656,727.7813 657.5,727.9219 657.2344,727.9219 C657.0156,727.9219 656.7813,727.8125 656.6406,727.6719 C656.5,727.5469 656.4688,727.4219 656.4063,727.0156 C656.3125,726.6094 656.1406,726.3906 655.6563,726.1094 C655.1875,725.8594 654.5781,725.7031 654,725.7031 C652.2656,725.7031 651.0156,727.0156 651.0156,728.7969 L651.0156,729.8906 C651.0156,731.5938 652.3125,732.6875 654.3594,732.6875 C655.125,732.6875 655.8125,732.5625 656.2344,732.2969 C656.4219,732.2031 656.4219,732.2031 656.875,731.7188 C657.0625,731.5313 657.2656,731.4531 657.4844,731.4531 C657.9531,731.4531 658.3438,731.8438 658.3438,732.2969 C658.3438,732.6875 658.0156,733.1406 657.4375,733.5469 C656.6875,734.0938 655.5313,734.3906 654.3125,734.3906 C651.4219,734.3906 649.3125,732.5 649.3125,729.9219 L649.3125,728.7969 C649.3125,726.0781 651.3125,724 653.9375,724 C654.8125,724 655.4063,724.1406 656.3438,724.5781 Z "/><text fill="#000000" font-family="sans-serif" font-size="12" lengthAdjust="spacingAndGlyphs" textLength="74" x="668" y="733.0605">DummySpot</text><line style="stroke: #A80036; stroke-width: 1.5;" x1="640" x2="744" y1="744.9063" y2="744.9063"/><line style="stroke: #A80036; stroke-width: 1.5;" x1="640" x2="744" y1="752.9063" y2="752.9063"/><!--class spot.LargeSpot--><rect fill="#FEFECE" filter="url(#frbqmlyddh2p7)" height="48" id="spot.LargeSpot" style="stroke: #A80036; stroke-width: 1.5;" width="96" x="780" y="712.9063"/><ellipse cx="795" cy="728.9063" fill="#ADD1B2" rx="11" ry="11" style="stroke: #A80036; stroke-width: 1.0;"/><path d="M797.3438,724.5781 L797.5156,724.6563 C797.7344,724.3438 797.9375,724.25 798.2344,724.25 C798.5313,724.25 798.8125,724.3906 798.9688,724.6563 C799.0625,724.8125 799.0781,724.9375 799.0781,725.375 L799.0781,726.7969 C799.0781,727.2188 799.0469,727.4063 798.9375,727.5625 C798.7656,727.7813 798.5,727.9219 798.2344,727.9219 C798.0156,727.9219 797.7813,727.8125 797.6406,727.6719 C797.5,727.5469 797.4688,727.4219 797.4063,727.0156 C797.3125,726.6094 797.1406,726.3906 796.6563,726.1094 C796.1875,725.8594 795.5781,725.7031 795,725.7031 C793.2656,725.7031 792.0156,727.0156 792.0156,728.7969 L792.0156,729.8906 C792.0156,731.5938 793.3125,732.6875 795.3594,732.6875 C796.125,732.6875 796.8125,732.5625 797.2344,732.2969 C797.4219,732.2031 797.4219,732.2031 797.875,731.7188 C798.0625,731.5313 798.2656,731.4531 798.4844,731.4531 C798.9531,731.4531 799.3438,731.8438 799.3438,732.2969 C799.3438,732.6875 799.0156,733.1406 798.4375,733.5469 C797.6875,734.0938 796.5313,734.3906 795.3125,734.3906 C792.4219,734.3906 790.3125,732.5 790.3125,729.9219 L790.3125,728.7969 C790.3125,726.0781 792.3125,724 794.9375,724 C795.8125,724 796.4063,724.1406 797.3438,724.5781 Z "/><text fill="#000000" font-family="sans-serif" font-size="12" lengthAdjust="spacingAndGlyphs" textLength="64" x="809" y="733.0605">LargeSpot</text><line style="stroke: #A80036; stroke-width: 1.5;" x1="781" x2="875" y1="744.9063" y2="744.9063"/><line style="stroke: #A80036; stroke-width: 1.5;" x1="781" x2="875" y1="752.9063" y2="752.9063"/><!--class spot.MotorbikeSpot--><rect fill="#FEFECE" filter="url(#frbqmlyddh2p7)" height="48" id="spot.MotorbikeSpot" style="stroke: #A80036; stroke-width: 1.5;" width="123" x="911.5" y="712.9063"/><ellipse cx="926.5" cy="728.9063" fill="#ADD1B2" rx="11" ry="11" style="stroke: #A80036; stroke-width: 1.0;"/><path d="M928.8438,724.5781 L929.0156,724.6563 C929.2344,724.3438 929.4375,724.25 929.7344,724.25 C930.0313,724.25 930.3125,724.3906 930.4688,724.6563 C930.5625,724.8125 930.5781,724.9375 930.5781,725.375 L930.5781,726.7969 C930.5781,727.2188 930.5469,727.4063 930.4375,727.5625 C930.2656,727.7813 930,727.9219 929.7344,727.9219 C929.5156,727.9219 929.2813,727.8125 929.1406,727.6719 C929,727.5469 928.9688,727.4219 928.9063,727.0156 C928.8125,726.6094 928.6406,726.3906 928.1563,726.1094 C927.6875,725.8594 927.0781,725.7031 926.5,725.7031 C924.7656,725.7031 923.5156,727.0156 923.5156,728.7969 L923.5156,729.8906 C923.5156,731.5938 924.8125,732.6875 926.8594,732.6875 C927.625,732.6875 928.3125,732.5625 928.7344,732.2969 C928.9219,732.2031 928.9219,732.2031 929.375,731.7188 C929.5625,731.5313 929.7656,731.4531 929.9844,731.4531 C930.4531,731.4531 930.8438,731.8438 930.8438,732.2969 C930.8438,732.6875 930.5156,733.1406 929.9375,733.5469 C929.1875,734.0938 928.0313,734.3906 926.8125,734.3906 C923.9219,734.3906 921.8125,732.5 921.8125,729.9219 L921.8125,728.7969 C921.8125,726.0781 923.8125,724 926.4375,724 C927.3125,724 927.9063,724.1406 928.8438,724.5781 Z "/><text fill="#000000" font-family="sans-serif" font-size="12" lengthAdjust="spacingAndGlyphs" textLength="91" x="940.5" y="733.0605">MotorbikeSpot</text><line style="stroke: #A80036; stroke-width: 1.5;" x1="912.5" x2="1033.5" y1="744.9063" y2="744.9063"/><line style="stroke: #A80036; stroke-width: 1.5;" x1="912.5" x2="1033.5" y1="752.9063" y2="752.9063"/><!--class spot.Spot--><rect fill="#FEFECE" filter="url(#frbqmlyddh2p7)" height="48" id="spot.Spot" style="stroke: #A80036; stroke-width: 1.5;" width="61" x="729.5" y="540.9063"/><ellipse cx="744.5" cy="556.9063" fill="#A9DCDF" rx="11" ry="11" style="stroke: #A80036; stroke-width: 1.0;"/><path d="M746.0781,558.7188 L742.0313,558.7188 L741.6406,559.7031 L742.0313,559.7031 C742.4844,559.7031 742.625,559.7344 742.7969,559.8594 C743.0156,560.0313 743.1406,560.2813 743.1406,560.5625 C743.1406,560.8438 743,561.1406 742.7344,561.2813 C742.6094,561.375 742.3906,561.4063 742.0313,561.4063 L739.7656,561.4063 C739.0156,561.4063 738.6406,561.125 738.6406,560.5625 C738.6406,560.2656 738.7969,559.9844 739.0469,559.8281 C739.2031,559.7188 739.3594,559.7031 739.7813,559.7031 L742.4219,553.1875 L741.3438,553.1875 C740.9063,553.1875 740.7344,553.1563 740.5625,553.0469 C740.3438,552.875 740.2031,552.625 740.2031,552.3438 C740.2031,552.0625 740.3594,551.7813 740.6094,551.6094 C740.7656,551.5156 740.8906,551.5 741.3438,551.5 L745.0156,551.5 L748.4063,559.7031 C748.875,559.7031 749.0313,559.7344 749.2031,559.875 C749.4219,560.0313 749.5625,560.2813 749.5625,560.5625 C749.5625,560.8438 749.4063,561.1406 749.1563,561.2813 C749.0156,561.375 748.7969,561.4063 748.4375,561.4063 L746.0781,561.4063 C745.6563,561.4063 745.4531,561.3594 745.3125,561.2344 C745.0938,561.0781 744.9531,560.8281 744.9531,560.5625 C744.9531,560.2656 745.1094,559.9844 745.3594,559.8281 C745.5156,559.7188 745.625,559.7031 746.0781,559.7031 L746.4688,559.7031 Z M745.375,557.0156 L744.0469,553.75 L742.7031,557.0156 Z "/><text fill="#000000" font-family="sans-serif" font-size="12" font-style="italic" lengthAdjust="spacingAndGlyphs" textLength="29" x="758.5" y="561.0605">Spot</text><line style="stroke: #A80036; stroke-width: 1.5;" x1="730.5" x2="789.5" y1="572.9063" y2="572.9063"/><line style="stroke: #A80036; stroke-width: 1.5;" x1="730.5" x2="789.5" y1="580.9063" y2="580.9063"/><!--class vehicle.Bike--><rect fill="#FEFECE" filter="url(#frbqmlyddh2p7)" height="48" id="vehicle.Bike" style="stroke: #A80036; stroke-width: 1.5;" width="58" x="38" y="823.9063"/><ellipse cx="53" cy="839.9063" fill="#ADD1B2" rx="11" ry="11" style="stroke: #A80036; stroke-width: 1.0;"/><path d="M55.3438,835.5781 L55.5156,835.6563 C55.7344,835.3438 55.9375,835.25 56.2344,835.25 C56.5313,835.25 56.8125,835.3906 56.9688,835.6563 C57.0625,835.8125 57.0781,835.9375 57.0781,836.375 L57.0781,837.7969 C57.0781,838.2188 57.0469,838.4063 56.9375,838.5625 C56.7656,838.7813 56.5,838.9219 56.2344,838.9219 C56.0156,838.9219 55.7813,838.8125 55.6406,838.6719 C55.5,838.5469 55.4688,838.4219 55.4063,838.0156 C55.3125,837.6094 55.1406,837.3906 54.6563,837.1094 C54.1875,836.8594 53.5781,836.7031 53,836.7031 C51.2656,836.7031 50.0156,838.0156 50.0156,839.7969 L50.0156,840.8906 C50.0156,842.5938 51.3125,843.6875 53.3594,843.6875 C54.125,843.6875 54.8125,843.5625 55.2344,843.2969 C55.4219,843.2031 55.4219,843.2031 55.875,842.7188 C56.0625,842.5313 56.2656,842.4531 56.4844,842.4531 C56.9531,842.4531 57.3438,842.8438 57.3438,843.2969 C57.3438,843.6875 57.0156,844.1406 56.4375,844.5469 C55.6875,845.0938 54.5313,845.3906 53.3125,845.3906 C50.4219,845.3906 48.3125,843.5 48.3125,840.9219 L48.3125,839.7969 C48.3125,837.0781 50.3125,835 52.9375,835 C53.8125,835 54.4063,835.1406 55.3438,835.5781 Z "/><text fill="#000000" font-family="sans-serif" font-size="12" lengthAdjust="spacingAndGlyphs" textLength="26" x="67" y="844.0605">Bike</text><line style="stroke: #A80036; stroke-width: 1.5;" x1="39" x2="95" y1="855.9063" y2="855.9063"/><line style="stroke: #A80036; stroke-width: 1.5;" x1="39" x2="95" y1="863.9063" y2="863.9063"/><!--class vehicle.Bus--><rect fill="#FEFECE" filter="url(#frbqmlyddh2p7)" height="48" id="vehicle.Bus" style="stroke: #A80036; stroke-width: 1.5;" width="55" x="131.5" y="823.9063"/><ellipse cx="146.5" cy="839.9063" fill="#ADD1B2" rx="11" ry="11" style="stroke: #A80036; stroke-width: 1.0;"/><path d="M148.8438,835.5781 L149.0156,835.6563 C149.2344,835.3438 149.4375,835.25 149.7344,835.25 C150.0313,835.25 150.3125,835.3906 150.4688,835.6563 C150.5625,835.8125 150.5781,835.9375 150.5781,836.375 L150.5781,837.7969 C150.5781,838.2188 150.5469,838.4063 150.4375,838.5625 C150.2656,838.7813 150,838.9219 149.7344,838.9219 C149.5156,838.9219 149.2813,838.8125 149.1406,838.6719 C149,838.5469 148.9688,838.4219 148.9063,838.0156 C148.8125,837.6094 148.6406,837.3906 148.1563,837.1094 C147.6875,836.8594 147.0781,836.7031 146.5,836.7031 C144.7656,836.7031 143.5156,838.0156 143.5156,839.7969 L143.5156,840.8906 C143.5156,842.5938 144.8125,843.6875 146.8594,843.6875 C147.625,843.6875 148.3125,843.5625 148.7344,843.2969 C148.9219,843.2031 148.9219,843.2031 149.375,842.7188 C149.5625,842.5313 149.7656,842.4531 149.9844,842.4531 C150.4531,842.4531 150.8438,842.8438 150.8438,843.2969 C150.8438,843.6875 150.5156,844.1406 149.9375,844.5469 C149.1875,845.0938 148.0313,845.3906 146.8125,845.3906 C143.9219,845.3906 141.8125,843.5 141.8125,840.9219 L141.8125,839.7969 C141.8125,837.0781 143.8125,835 146.4375,835 C147.3125,835 147.9063,835.1406 148.8438,835.5781 Z "/><text fill="#000000" font-family="sans-serif" font-size="12" lengthAdjust="spacingAndGlyphs" textLength="23" x="160.5" y="844.0605">Bus</text><line style="stroke: #A80036; stroke-width: 1.5;" x1="132.5" x2="185.5" y1="855.9063" y2="855.9063"/><line style="stroke: #A80036; stroke-width: 1.5;" x1="132.5" x2="185.5" y1="863.9063" y2="863.9063"/><!--class vehicle.Car--><rect fill="#FEFECE" filter="url(#frbqmlyddh2p7)" height="48" id="vehicle.Car" style="stroke: #A80036; stroke-width: 1.5;" width="53" x="221.5" y="823.9063"/><ellipse cx="236.5" cy="839.9063" fill="#ADD1B2" rx="11" ry="11" style="stroke: #A80036; stroke-width: 1.0;"/><path d="M238.8438,835.5781 L239.0156,835.6563 C239.2344,835.3438 239.4375,835.25 239.7344,835.25 C240.0313,835.25 240.3125,835.3906 240.4688,835.6563 C240.5625,835.8125 240.5781,835.9375 240.5781,836.375 L240.5781,837.7969 C240.5781,838.2188 240.5469,838.4063 240.4375,838.5625 C240.2656,838.7813 240,838.9219 239.7344,838.9219 C239.5156,838.9219 239.2813,838.8125 239.1406,838.6719 C239,838.5469 238.9688,838.4219 238.9063,838.0156 C238.8125,837.6094 238.6406,837.3906 238.1563,837.1094 C237.6875,836.8594 237.0781,836.7031 236.5,836.7031 C234.7656,836.7031 233.5156,838.0156 233.5156,839.7969 L233.5156,840.8906 C233.5156,842.5938 234.8125,843.6875 236.8594,843.6875 C237.625,843.6875 238.3125,843.5625 238.7344,843.2969 C238.9219,843.2031 238.9219,843.2031 239.375,842.7188 C239.5625,842.5313 239.7656,842.4531 239.9844,842.4531 C240.4531,842.4531 240.8438,842.8438 240.8438,843.2969 C240.8438,843.6875 240.5156,844.1406 239.9375,844.5469 C239.1875,845.0938 238.0313,845.3906 236.8125,845.3906 C233.9219,845.3906 231.8125,843.5 231.8125,840.9219 L231.8125,839.7969 C231.8125,837.0781 233.8125,835 236.4375,835 C237.3125,835 237.9063,835.1406 238.8438,835.5781 Z "/><text fill="#000000" font-family="sans-serif" font-size="12" lengthAdjust="spacingAndGlyphs" textLength="21" x="250.5" y="844.0605">Car</text><line style="stroke: #A80036; stroke-width: 1.5;" x1="222.5" x2="273.5" y1="855.9063" y2="855.9063"/><line style="stroke: #A80036; stroke-width: 1.5;" x1="222.5" x2="273.5" y1="863.9063" y2="863.9063"/><!--class vehicle.DummyVehicle--><rect fill="#FEFECE" filter="url(#frbqmlyddh2p7)" height="48" id="vehicle.DummyVehicle" style="stroke: #A80036; stroke-width: 1.5;" width="122" x="310" y="823.9063"/><ellipse cx="325" cy="839.9063" fill="#ADD1B2" rx="11" ry="11" style="stroke: #A80036; stroke-width: 1.0;"/><path d="M327.3438,835.5781 L327.5156,835.6563 C327.7344,835.3438 327.9375,835.25 328.2344,835.25 C328.5313,835.25 328.8125,835.3906 328.9688,835.6563 C329.0625,835.8125 329.0781,835.9375 329.0781,836.375 L329.0781,837.7969 C329.0781,838.2188 329.0469,838.4063 328.9375,838.5625 C328.7656,838.7813 328.5,838.9219 328.2344,838.9219 C328.0156,838.9219 327.7813,838.8125 327.6406,838.6719 C327.5,838.5469 327.4688,838.4219 327.4063,838.0156 C327.3125,837.6094 327.1406,837.3906 326.6563,837.1094 C326.1875,836.8594 325.5781,836.7031 325,836.7031 C323.2656,836.7031 322.0156,838.0156 322.0156,839.7969 L322.0156,840.8906 C322.0156,842.5938 323.3125,843.6875 325.3594,843.6875 C326.125,843.6875 326.8125,843.5625 327.2344,843.2969 C327.4219,843.2031 327.4219,843.2031 327.875,842.7188 C328.0625,842.5313 328.2656,842.4531 328.4844,842.4531 C328.9531,842.4531 329.3438,842.8438 329.3438,843.2969 C329.3438,843.6875 329.0156,844.1406 328.4375,844.5469 C327.6875,845.0938 326.5313,845.3906 325.3125,845.3906 C322.4219,845.3906 320.3125,843.5 320.3125,840.9219 L320.3125,839.7969 C320.3125,837.0781 322.3125,835 324.9375,835 C325.8125,835 326.4063,835.1406 327.3438,835.5781 Z "/><text fill="#000000" font-family="sans-serif" font-size="12" lengthAdjust="spacingAndGlyphs" textLength="90" x="339" y="844.0605">DummyVehicle</text><line style="stroke: #A80036; stroke-width: 1.5;" x1="311" x2="431" y1="855.9063" y2="855.9063"/><line style="stroke: #A80036; stroke-width: 1.5;" x1="311" x2="431" y1="863.9063" y2="863.9063"/><!--class vehicle.Vehicle--><rect fill="#FEFECE" filter="url(#frbqmlyddh2p7)" height="48" id="vehicle.Vehicle" style="stroke: #A80036; stroke-width: 1.5;" width="77" x="209.5" y="712.9063"/><ellipse cx="224.5" cy="728.9063" fill="#A9DCDF" rx="11" ry="11" style="stroke: #A80036; stroke-width: 1.0;"/><path d="M226.0781,730.7188 L222.0313,730.7188 L221.6406,731.7031 L222.0313,731.7031 C222.4844,731.7031 222.625,731.7344 222.7969,731.8594 C223.0156,732.0313 223.1406,732.2813 223.1406,732.5625 C223.1406,732.8438 223,733.1406 222.7344,733.2813 C222.6094,733.375 222.3906,733.4063 222.0313,733.4063 L219.7656,733.4063 C219.0156,733.4063 218.6406,733.125 218.6406,732.5625 C218.6406,732.2656 218.7969,731.9844 219.0469,731.8281 C219.2031,731.7188 219.3594,731.7031 219.7813,731.7031 L222.4219,725.1875 L221.3438,725.1875 C220.9063,725.1875 220.7344,725.1563 220.5625,725.0469 C220.3438,724.875 220.2031,724.625 220.2031,724.3438 C220.2031,724.0625 220.3594,723.7813 220.6094,723.6094 C220.7656,723.5156 220.8906,723.5 221.3438,723.5 L225.0156,723.5 L228.4063,731.7031 C228.875,731.7031 229.0313,731.7344 229.2031,731.875 C229.4219,732.0313 229.5625,732.2813 229.5625,732.5625 C229.5625,732.8438 229.4063,733.1406 229.1563,733.2813 C229.0156,733.375 228.7969,733.4063 228.4375,733.4063 L226.0781,733.4063 C225.6563,733.4063 225.4531,733.3594 225.3125,733.2344 C225.0938,733.0781 224.9531,732.8281 224.9531,732.5625 C224.9531,732.2656 225.1094,731.9844 225.3594,731.8281 C225.5156,731.7188 225.625,731.7031 226.0781,731.7031 L226.4688,731.7031 Z M225.375,729.0156 L224.0469,725.75 L222.7031,729.0156 Z "/><text fill="#000000" font-family="sans-serif" font-size="12" font-style="italic" lengthAdjust="spacingAndGlyphs" textLength="45" x="238.5" y="733.0605">Vehicle</text><line style="stroke: #A80036; stroke-width: 1.5;" x1="210.5" x2="285.5" y1="744.9063" y2="744.9063"/><line style="stroke: #A80036; stroke-width: 1.5;" x1="210.5" x2="285.5" y1="752.9063" y2="752.9063"/><!--link account.Account to account.payment.Payment--><path d="M1620.98,602.0732 C1614.47,635.5873 1604.99,684.4273 1599.46,712.9063 " fill="none" id="account.Account-account.payment.Payment" style="stroke: #A80036; stroke-width: 1.0;"/><polygon fill="#FFFFFF" points="1623.48,589.1873,1618.4096,594.3148,1621.1926,600.9672,1626.263,595.8397,1623.48,589.1873" style="stroke: #A80036; stroke-width: 1.0;"/><text fill="#000000" font-family="sans-serif" font-size="13" lengthAdjust="spacingAndGlyphs" textLength="57" x="1614" y="657.9731">payment</text><!--link account.payment.Payment to account.payment.CashPayment--><path d="M1545.68,772.5893 C1521.88,789.3243 1493.98,808.9453 1472.82,823.8233 " fill="none" id="account.payment.Payment-account.payment.CashPayment" style="stroke: #A80036; stroke-width: 1.0;"/><polygon fill="none" points="1541.74,766.8013,1562.13,761.0223,1549.8,778.2533,1541.74,766.8013" style="stroke: #A80036; stroke-width: 1.0;"/><!--link account.payment.Payment to account.payment.CreditPayment--><path d="M1595,781.0773 C1595,795.6723 1595,811.4013 1595,823.8233 " fill="none" id="account.payment.Payment-account.payment.CreditPayment" style="stroke: #A80036; stroke-width: 1.0;"/><polygon fill="none" points="1588,781.0223,1595,761.0223,1602,781.0223,1588,781.0223" style="stroke: #A80036; stroke-width: 1.0;"/><!--link database.DBFacade to database.Database--><path d="M2011,463.1693 C2011,488.6843 2011,519.9583 2011,540.8273 " fill="none" id="database.DBFacade-database.Database" style="stroke: #A80036; stroke-width: 1.0;"/><polygon fill="none" points="2004,463.0423,2011,443.0423,2018,463.0423,2004,463.0423" style="stroke: #A80036; stroke-width: 1.0;"/><!--link factory.ChargerFactory to database.DBFacade--><path d="M1933.63,306.0603 C1952.54,333.4013 1978.55,371.0013 1995.07,394.8803 " fill="none" id="factory.ChargerFactory-database.DBFacade" style="stroke: #A80036; stroke-width: 1.0;"/><polygon fill="#FFFFFF" points="1926,295.0403,1926.1255,302.2503,1932.8292,304.9075,1932.7037,297.6974,1926,295.0403" style="stroke: #A80036; stroke-width: 1.0;"/><text fill="#000000" font-family="sans-serif" font-size="13" lengthAdjust="spacingAndGlyphs" textLength="16" x="1959" y="339.9731">db</text><!--link factory.ChargerFactory to finance.MoneyCharger--><path d="M1893.35,295.0943 C1886.39,304.8723 1878.24,316.4023 1871,326.9063 C1856.47,347.9813 1840.36,372.0503 1828.34,390.1382 " fill="none" id="factory.ChargerFactory-finance.MoneyCharger" style="stroke: #A80036; stroke-width: 1.0;"/><polygon fill="#A80036" points="1825.38,394.6033,1833.6859,389.3106,1828.142,390.4353,1827.0172,384.8914,1825.38,394.6033" style="stroke: #A80036; stroke-width: 1.0;"/><text fill="#000000" font-family="sans-serif" font-size="13" lengthAdjust="spacingAndGlyphs" textLength="41" x="1872" y="339.9731">create</text><!--link factory.ParkingLotFactory to factory.ChargerFactory--><path d="M1820,159.1423 C1841.83,186.0063 1871.99,223.1263 1891.25,246.8273 " fill="none" id="factory.ParkingLotFactory-factory.ChargerFactory" style="stroke: #A80036; stroke-width: 1.0;"/><polygon fill="#FFFFFF" points="1811.8,149.0422,1812.4758,156.2216,1819.3628,158.3591,1818.687,151.1797,1811.8,149.0422" style="stroke: #A80036; stroke-width: 1.0;"/><text fill="#000000" font-family="sans-serif" font-size="13" lengthAdjust="spacingAndGlyphs" textLength="96" x="1849" y="191.9731">chargerFactory</text><!--link factory.ParkingLotFactory to factory.ParkingLotMapFactory--><path d="M1760.02,159.0683 C1755.1,165.2922 1750.51,172.0203 1747,178.9063 C1736.04,200.4362 1730.73,227.7313 1728.2,246.7872 " fill="none" id="factory.ParkingLotFactory-factory.ParkingLotMapFactory" style="stroke: #A80036; stroke-width: 1.0;"/><polygon fill="#FFFFFF" points="1768.49,149.1292,1761.5529,151.0981,1760.7021,158.2588,1767.6393,156.29,1768.49,149.1292" style="stroke: #A80036; stroke-width: 1.0;"/><text fill="#000000" font-family="sans-serif" font-size="13" lengthAdjust="spacingAndGlyphs" textLength="76" x="1748" y="191.9731">mapFactory</text><!--link factory.ParkingLotMapFactory to database.DBFacade--><path d="M1763.11,303.0963 C1783.12,318.1083 1809,334.7893 1835,343.9063 C1872.06,356.8993 1886.34,337.8113 1923,351.9063 C1947.6,361.3642 1971.25,379.8043 1987.82,394.7943 " fill="none" id="factory.ParkingLotMapFactory-database.DBFacade" style="stroke: #A80036; stroke-width: 1.0;"/><polygon fill="#FFFFFF" points="1752.64,294.9873,1754.9363,301.823,1762.1294,302.3324,1759.8331,295.4967,1752.64,294.9873" style="stroke: #A80036; stroke-width: 1.0;"/><text fill="#000000" font-family="sans-serif" font-size="13" lengthAdjust="spacingAndGlyphs" textLength="16" x="1836" y="339.9731">db</text><!--link factory.ParkingLotMapFactory to parking.map.ParkingLotMap--><path d="M1653.11,294.9623 C1606.36,309.5232 1544.29,328.4383 1489,343.9063 C1413.32,365.0803 1325.82,387.1503 1267.11,401.6163 " fill="none" id="factory.ParkingLotMapFactory-parking.map.ParkingLotMap" style="stroke: #A80036; stroke-width: 1.0;"/><polygon fill="#A80036" points="1262.22,402.8183,1271.9169,404.5415,1267.0739,401.6183,1269.9971,396.7753,1262.22,402.8183" style="stroke: #A80036; stroke-width: 1.0;"/><text fill="#000000" font-family="sans-serif" font-size="13" lengthAdjust="spacingAndGlyphs" textLength="41" x="1549" y="339.9731">create</text><!--link finance.MoneyCharger to finance.ParkingMoneyCharger--><path d="M1813.61,463.1693 C1815.73,488.6843 1818.34,519.9583 1820.08,540.8273 " fill="none" id="finance.MoneyCharger-finance.ParkingMoneyCharger" style="stroke: #A80036; stroke-width: 1.0;"/><polygon fill="none" points="1806.61,463.5543,1811.93,443.0423,1820.56,462.3923,1806.61,463.5543" style="stroke: #A80036; stroke-width: 1.0;"/><!--link finance.MoneyCharger to account.Account--><path d="M1780.76,443.0423 C1748.12,468.8643 1695.42,510.5633 1661.24,537.6043 " fill="none" id="finance.MoneyCharger-account.Account" style="stroke: #A80036; stroke-width: 1.0;"/><polygon fill="#A80036" points="1657.17,540.8273,1666.7054,538.3624,1661.0855,537.7177,1661.7302,532.0977,1657.17,540.8273" style="stroke: #A80036; stroke-width: 1.0;"/><text fill="#000000" font-family="sans-serif" font-size="13" lengthAdjust="spacingAndGlyphs" textLength="20" x="1742" y="485.9731">1-*</text><!--link parking.ParkingLot to finance.MoneyCharger--><path d="M1287.49,296.2713 C1327.59,311.4963 1381.34,330.6573 1430,343.9063 C1540.73,374.0533 1672.8,396.9063 1748.49,408.7823 " fill="none" id="parking.ParkingLot-finance.MoneyCharger" style="stroke: #A80036; stroke-width: 1.0;"/><polygon fill="#FFFFFF" points="1275.24,291.5812,1279.4095,297.4647,1286.444,295.8788,1282.2746,289.9954,1275.24,291.5812" style="stroke: #A80036; stroke-width: 1.0;"/><text fill="#000000" font-family="sans-serif" font-size="13" lengthAdjust="spacingAndGlyphs" textLength="49" x="1431" y="339.9731">charger</text><!--link parking.ParkingLot to parking.map.ParkingLotMap--><path d="M1219.59,307.9063 C1214.75,335.0733 1208.26,371.5343 1204.1,394.8803 " fill="none" id="parking.ParkingLot-parking.map.ParkingLotMap" style="stroke: #A80036; stroke-width: 1.0;"/><polygon fill="#FFFFFF" points="1221.88,295.0403,1216.8898,300.2458,1219.7756,306.8543,1224.7658,301.6487,1221.88,295.0403" style="stroke: #A80036; stroke-width: 1.0;"/><text fill="#000000" font-family="sans-serif" font-size="13" lengthAdjust="spacingAndGlyphs" textLength="94" x="1218" y="339.9731">parkingLotMap</text><!--link parking.map.ParkingLotMap to parking.map.LinearParkingLotMap--><path d="M1198.8,463.1693 C1198.09,488.6843 1197.22,519.9583 1196.64,540.8273 " fill="none" id="parking.map.ParkingLotMap-parking.map.LinearParkingLotMap" style="stroke: #A80036; stroke-width: 1.0;"/><polygon fill="none" points="1191.8,462.8403,1199.36,443.0423,1205.8,463.2293,1191.8,462.8403" style="stroke: #A80036; stroke-width: 1.0;"/><!--link parking.map.ParkingLotMap to spot.Spot--><path d="M1137.89,440.2323 C1044.25,470.8803 869.928,527.9303 795.341,552.3403 " fill="none" id="parking.map.ParkingLotMap-spot.Spot" style="stroke: #A80036; stroke-width: 1.0;"/><polygon fill="#A80036" points="790.574,553.9003,800.3718,554.9021,795.3259,552.3448,797.8831,547.299,790.574,553.9003" style="stroke: #A80036; stroke-width: 1.0;"/><text fill="#000000" font-family="sans-serif" font-size="13" lengthAdjust="spacingAndGlyphs" textLength="20" x="1034" y="485.9731">1-*</text><!--link spot.Spot to spot.CompactSpot--><path d="M713.067,599.5903 C685.789,619.5213 650.987,645.5573 621,669.9063 C604.034,683.6823 585.601,699.8853 571.254,712.7903 " fill="none" id="spot.Spot-spot.CompactSpot" style="stroke: #A80036; stroke-width: 1.0;"/><polygon fill="none" points="709.078,593.8363,729.374,587.7473,717.305,605.1643,709.078,593.8363" style="stroke: #A80036; stroke-width: 1.0;"/><!--link spot.Spot to spot.DummySpot--><path d="M743.151,608.0293 C729.897,641.1623 711.934,686.0722 701.2,712.9063 " fill="none" id="spot.Spot-spot.DummySpot" style="stroke: #A80036; stroke-width: 1.0;"/><polygon fill="none" points="736.76,605.1573,750.687,589.1873,749.759,610.3573,736.76,605.1573" style="stroke: #A80036; stroke-width: 1.0;"/><!--link spot.Spot to spot.LargeSpot--><path d="M776.849,608.0293 C790.103,641.1623 808.066,686.0722 818.8,712.9063 " fill="none" id="spot.Spot-spot.LargeSpot" style="stroke: #A80036; stroke-width: 1.0;"/><polygon fill="none" points="770.241,610.3573,769.313,589.1873,783.24,605.1573,770.241,610.3573" style="stroke: #A80036; stroke-width: 1.0;"/><!--link spot.Spot to spot.MotorbikeSpot--><path d="M805.833,601.2713 C831.58,621.2552 864.225,646.7923 893,669.9063 C910.547,684.0013 930.032,700.0673 945.378,712.8183 " fill="none" id="spot.Spot-spot.MotorbikeSpot" style="stroke: #A80036; stroke-width: 1.0;"/><polygon fill="none" points="801.545,606.8032,790.02,589.0213,810.118,595.7362,801.545,606.8032" style="stroke: #A80036; stroke-width: 1.0;"/><!--link spot.Spot to vehicle.Vehicle--><path d="M716.786,580.2552 C618.691,612.8253 380.456,691.9273 286.764,723.0353 " fill="none" id="spot.Spot-vehicle.Vehicle" style="stroke: #A80036; stroke-width: 1.0;"/><polygon fill="#FFFFFF" points="729.125,576.1573,722.1703,574.2514,717.7362,579.9381,724.6909,581.844,729.125,576.1573" style="stroke: #A80036; stroke-width: 1.0;"/><text fill="#000000" font-family="sans-serif" font-size="13" lengthAdjust="spacingAndGlyphs" textLength="44" x="521" y="657.9731">vehicle</text><!--link vehicle.Vehicle to vehicle.Bike--><path d="M192.304,771.4463 C160.523,790.5863 121.986,813.7933 96.1122,829.3747 " fill="none" id="vehicle.Vehicle-vehicle.Bike" style="stroke: #A80036; stroke-width: 1.0;"/><polygon fill="none" points="188.87,765.3433,209.615,761.0223,196.093,777.3363,188.87,765.3433" style="stroke: #A80036; stroke-width: 1.0;"/><!--link vehicle.Vehicle to vehicle.Bus--><path d="M216.457,776.5373 C203.551,792.3433 189.052,810.1012 177.847,823.8233 " fill="none" id="vehicle.Vehicle-vehicle.Bus" style="stroke: #A80036; stroke-width: 1.0;"/><polygon fill="none" points="211.054,772.0873,229.125,761.0223,221.898,780.9413,211.054,772.0873" style="stroke: #A80036; stroke-width: 1.0;"/><!--link vehicle.Vehicle to vehicle.Car--><path d="M248,781.0773 C248,795.6723 248,811.4013 248,823.8233 " fill="none" id="vehicle.Vehicle-vehicle.Car" style="stroke: #A80036; stroke-width: 1.0;"/><polygon fill="none" points="241,781.0223,248,761.0223,255,781.0223,241,781.0223" style="stroke: #A80036; stroke-width: 1.0;"/><!--link vehicle.Vehicle to vehicle.DummyVehicle--><path d="M289.074,774.3053 C307.521,790.6523 328.734,809.4513 344.952,823.8233 " fill="none" id="vehicle.Vehicle-vehicle.DummyVehicle" style="stroke: #A80036; stroke-width: 1.0;"/><polygon fill="none" points="284.411,779.5263,274.085,761.0223,293.696,769.0483,284.411,779.5263" style="stroke: #A80036; stroke-width: 1.0;"/><text fill="#888888" font-family="sans-serif" font-size="10" lengthAdjust="spacingAndGlyphs" textLength="0" x="2109" y="947.1885"/><text fill="#888888" font-family="sans-serif" font-size="10" lengthAdjust="spacingAndGlyphs" textLength="0" x="2109" y="958.8291"/><text fill="#888888" font-family="sans-serif" font-size="10" lengthAdjust="spacingAndGlyphs" textLength="413" x="1696" y="970.4697">PlantUML diagram generated by SketchIt! (https://bitbucket.org/pmesmeur/sketch.it)</text><text fill="#888888" font-family="sans-serif" font-size="10" lengthAdjust="spacingAndGlyphs" textLength="402" x="1707" y="982.1104">For more information about this tool, please contact philippe.mesmeur@gmail.com</text><!--
@startuml
title __PARKINGLOT's Class Diagram__\n

  namespace account {
    class account.Account {
    }
  }
  

  namespace account {
    namespace payment {
      class account.payment.CashPayment {
      }
    }
  }
  

  namespace account {
    namespace payment {
      class account.payment.CreditPayment {
      }
    }
  }
  

  namespace account {
    namespace payment {
      abstract class account.payment.Payment {
      }
    }
  }
  

  namespace database {
    abstract class database.DBFacade {
    }
  }
  

  namespace database {
    class database.Database {
    }
  }
  

  namespace factory {
    class factory.ChargerFactory {
    }
  }
  

  namespace factory {
    class factory.ParkingLotFactory {
    }
  }
  

  namespace factory {
    class factory.ParkingLotMapFactory {
    }
  }
  

  namespace finance {
    abstract class finance.MoneyCharger {
    }
  }
  

  namespace finance {
    class finance.ParkingMoneyCharger {
    }
  }
  

  namespace parking {
    class parking.ParkingLot {
    }
  }
  

  namespace parking {
    namespace map {
      class parking.map.LinearParkingLotMap {
      }
    }
  }
  

  namespace parking {
    namespace map {
      abstract class parking.map.ParkingLotMap {
      }
    }
  }

  namespace spot {
    class spot.CompactSpot {
    }
  }
  

  namespace spot {
    class spot.DummySpot {
    }
  }
  

  namespace spot {
    class spot.LargeSpot {
    }
  }
  

  namespace spot {
    class spot.MotorbikeSpot {
    }
  }
  

  namespace spot {
    abstract class spot.Spot {
    }
  }
  

  namespace vehicle {
    class vehicle.Bike {
    }
  }
  

  namespace vehicle {
    class vehicle.Bus {
    }
  }
  

  namespace vehicle {
    class vehicle.Car {
    }
  }
  

  namespace vehicle {
    class vehicle.DummyVehicle {
    }
  }
  

  namespace vehicle {
    abstract class vehicle.Vehicle {
    }
  }
  

  account.Account o- - account.payment.Payment : payment
  account.payment.CashPayment -up-|> account.payment.Payment
  account.payment.CreditPayment -up-|> account.payment.Payment
  
  database.Database -up-|> database.DBFacade
  
  
  factory.ChargerFactory o- - database.DBFacade : db
  factory.ChargerFactory - -> finance.MoneyCharger : createBySize
  
  factory.ParkingLotFactory o- - factory.ChargerFactory : chargerFactory
  factory.ParkingLotFactory o- - factory.ParkingLotMapFactory : mapFactory
  
  factory.ParkingLotMapFactory o- - database.DBFacade : db
  factory.ParkingLotMapFactory - -> parking.map.ParkingLotMap : createBySize
  
  finance.ParkingMoneyCharger -up-|> finance.MoneyCharger
  finance.MoneyCharger - -> account.Account : 1-*
  
  parking.ParkingLot o- - finance.MoneyCharger : charger
  parking.ParkingLot o- - parking.map.ParkingLotMap : parkingLotMap
  parking.map.LinearParkingLotMap -up-|> parking.map.ParkingLotMap
  parking.map.ParkingLotMap - -> spot.Spot : 1-*
  
  
  spot.CompactSpot -up-|> spot.Spot
  spot.DummySpot -up-|> spot.Spot
  spot.LargeSpot -up-|> spot.Spot
  spot.MotorbikeSpot -up-|> spot.Spot
  spot.Spot o- - vehicle.Vehicle : vehicle
  vehicle.Bike -up-|> vehicle.Vehicle
  vehicle.Bus -up-|> vehicle.Vehicle
  vehicle.Car -up-|> vehicle.Vehicle
  vehicle.DummyVehicle -up-|> vehicle.Vehicle
  
  


right footer


PlantUML diagram generated by SketchIt! (https://bitbucket.org/pmesmeur/sketch.it)
For more information about this tool, please contact philippe.mesmeur@gmail.com
endfooter
@enduml

PlantUML version 1.2019.08(Sat Jul 13 19:25:14 UTC 2019)
(GPL source distribution)
Java Runtime: Java(TM) SE Runtime Environment
JVM: Java HotSpot(TM) 64-Bit Server VM
Java Version: 1.7.0_25-b15
Operating System: Linux
Default Encoding: UTF-8
Language: en
Country: US
--></g></svg>